<svg width="500" height="500" xmlns="http://www.w3.org/2000/svg">
 <!-- Created with Method Draw - http://github.com/duopixel/Method-Draw/ -->

 <g>
  <title>background</title>
  <rect fill="#000000" id="canvas_background" height="502" width="502" y="-1" x="-1"/>
  <g display="none" overflow="visible" y="0" x="0" height="100%" width="100%" id="canvasGrid">
   <rect fill="url(#gridpattern)" stroke-width="0" y="0" x="0" height="100%" width="100%"/>
  </g>
 </g>
 <g>
  <title>Layer 1</title>
  <path id="svg_15" d="m321.478571,495.050352c-12.359008,-13.209342 -31.5778,-14.715678 -36.19913,-33.517455c-3.622201,-10.226637 -37.769496,-23.942582 -17.55949,-5.58717c15.605703,11.060818 34.146247,51.858359 -4.247084,38.968339c-29.201,-8.374421 -30.453161,-34.233853 -38.280417,-53.593895c-25.453694,-13.799849 6.58087,-42.978622 -20.82552,-60.659873c-23.260263,-18.457117 -7.060949,-53.024564 -40.297923,-66.111676c-16.682751,-5.291098 -23.903818,31.241503 -26.712742,4.515516c-9.139756,-27.030652 -41.418947,13.139844 -62.943613,8.88114c-17.369169,-1.179928 29.054122,-10.615807 6.900681,-13.155088c-13.02453,5.571592 -25.075364,15.205215 -27.135947,-0.741285c-15.667731,-7.271377 -48.523295,-18.883475 -47.669805,-30.43475c13.605821,-3.33995 59.537526,6.324376 51.577743,-7.103953c-13.658502,-4.050531 -16.139638,-15.122916 0.589334,-7.691886c32.968135,0.808158 71.616166,-9.475475 99.047753,10.193109c14.308411,6.879701 28.376943,31.553722 36.036936,7.575189c24.692221,-23.272449 74.517127,-25.243703 89.738746,-55.375695c3.683438,-14.578239 -11.31276,-22.895548 -24.052494,-25.848468c-2.478526,-4.79093 -6.697762,-25.131434 -17.232665,-14.866973c0.480164,-8.983832 10.362443,-30.467343 -11.527164,-20.956585c-2.22021,-19.135004 18.712876,-38.225433 -8.978781,-52.15978c25.9456,3.761111 20.829242,-19.352972 15.178049,-23.018779c15.380325,-1.706604 33.429861,-12.521927 24.949681,-25.920271c16.702621,23.69508 17.281773,-28.746515 31.032955,-6.142611c25.309125,3.242323 -7.862612,-17.669467 15.415575,-13.001887c13.292107,0.355407 10.339983,-11.380876 22.280856,-2.523102c15.803551,-6.738249 -12.11498,-27.102338 13.401534,-12.953132c8.577735,5.823172 35.886827,21.07492 30.986947,0.948889c24.246386,20.211122 43.327026,-18.772694 63.474833,-26.845861c7.991674,-7.471227 25.370255,-15.378105 9.342652,-1.116347c-10.640243,18.179346 -46.739015,37.845539 -37.027336,55.909358c-8.7906,6.253776 17.736356,14.113688 -3.380206,11.746094c-12.510057,10.552427 16.771922,30.295372 19.108767,46.903263c-6.707365,11.379355 -32.247429,24.297939 -42.579028,23.889632c3.776096,-14.650928 -4.409962,-33.746755 -28.31994,-25.465432c13.393898,19.150766 31.502254,37.44579 42.847782,58.271905c11.089436,20.473064 29.069051,44.115311 52.723729,17.766459c15.076814,-16.793652 58.147534,-16.550546 46.316367,10.722409c-6.048133,26.781244 10.144551,62.127098 -20.96932,80.574955c-18.769599,28.262995 -39.578222,-10.508787 -24.831998,-25.176495c-3.757487,-4.191565 -6.664309,-7.150418 4.331058,-12.880009c-2.270368,-4.297798 31.642823,-20.467247 14.550706,-30.389071c-19.439485,17.225392 -47.883952,37.163858 -39.978904,62.769169c6.415811,17.158653 -46.498709,46.575601 -42.267367,18.099219c0.947794,-11.066886 21.167681,-32.515749 16.513327,-35.279015c-14.762351,21.644785 -35.762513,42.439227 -67.495898,48.865592c-26.395948,1.222332 -40.223211,17.83019 -27.688277,36.256787c2.395536,26.111312 -15.242858,49.743347 -19.303643,75.166391c7.548513,26.964481 53.50595,32.413325 59.743996,59.919157c10.718891,18.472928 -16.093267,15.742923 -28.58538,10.573955l0.000065,0.000017zm-65.355363,-80.44375c-3.869096,-12.188766 -11.831403,31.684793 -2.016414,8.398488l1.469324,-4.114044l0.54709,-4.284461l0,0.000017z" stroke-width="1.5" fill="#ffff00"/>
 </g>
</svg>