<svg width="500" height="500" xmlns="http://www.w3.org/2000/svg">
 <!-- Created with Method Draw - http://github.com/duopixel/Method-Draw/ -->

 <g>
  <title>background</title>
  <rect fill="none" id="canvas_background" height="502" width="502" y="-1" x="-1"/>
  <g display="none" overflow="visible" y="0" x="0" height="100%" width="100%" id="canvasGrid">
   <rect fill="url(#gridpattern)" stroke-width="0" y="0" x="0" height="100%" width="100%"/>
  </g>
 </g>
 <g>
  <title>Layer 1</title>
  <path stroke="null" transform="rotate(-90 248.17874145507815,146.59788513183597) " id="svg_22" d="m121.178752,146.597684c0,-56.569684 0,-113.139357 0,-169.709042c14.90089,0 29.801793,0 44.702682,0c0,113.139357 0,226.278726 0,339.418084c-14.90089,0 -29.80178,0 -44.702682,0c0,-56.569707 0,-113.139357 0,-169.709053l0,0.000011zm66.038035,0c0,-56.569684 0,-113.139357 0,-169.709042c10.903672,-2.81755 16.630701,2.104412 14.248522,11.421619c0.161019,51.853388 0.322026,103.706777 0.483058,155.560142c27.568371,-17.503845 38.013085,-47.811286 46.556095,-75.499236c4.90305,18.031327 12.700978,39.990206 35.089094,45.866526c21.33872,5.69192 40.236892,-12.150507 40.014406,-30.430146c3.727019,-23.359471 4.242738,-47.627765 -1.474869,-70.729616c-5.353022,-14.615737 -21.396909,-26.68583 -39.239657,-25.720132c-14.683957,-6.006757 -31.15279,12.527908 -12.333809,19.311738c15.826401,14.940557 -2.570345,40.517494 -24.573118,34.528838c-21.331921,-4.061198 -27.005169,-29.052019 -14.662606,-43.180269c17.705046,-20.529643 50.342794,-23.118754 77.166892,-20.130622c34.903331,3.528394 61.450661,31.479228 65.213927,61.69866c4.805631,26.967354 -3.027336,57.435611 -28.435795,74.667367c-21.304002,15.938131 -52.618826,17.928334 -77.652058,8.19124c-6.08795,8.13859 -12.175926,16.277146 -18.263877,24.415714c5.981354,7.940599 11.962669,15.88121 17.943985,23.821774c30.313219,-12.072549 69.935855,-5.796272 89.975289,18.765743c28.224608,33.08286 22.719049,86.256872 -13.942396,112.658552c-23.025959,16.707163 -55.389948,16.76461 -82.754689,10.085829c-20.709129,-4.910381 -40.913541,-22.802809 -34.509002,-43.194877c3.23112,-17.770773 30.736995,-24.456418 44.13736,-11.230732c18.246498,14.646767 -8.200303,29.397601 -6.844845,43.514934c20.303335,13.672948 53.18965,0.800165 57.915883,-21.008449c7.514013,-23.944046 5.749305,-49.39637 2.074446,-73.742851c-1.970691,-16.368262 -17.997084,-32.869907 -37.865729,-28.304812c-20.899699,4.216806 -31.331213,23.549765 -34.911133,40.71231c-4.388719,12.568875 -5.788689,-12.017215 -9.213669,-16.042095c-7.119659,-20.17264 -19.540476,-39.985386 -38.662265,-52.703429c-1.969868,5.439531 -0.178231,12.22488 -0.808464,18.237827c-0.152626,49.29219 -0.305277,98.584333 -0.45789,147.876523c-10.910201,2.819207 -16.625174,-2.106342 -14.213071,-11.421688c0,-52.762429 0,-105.524903 0,-158.287354l-0.000013,0.000011z" stroke-opacity="null" stroke-width="1.5" fill="#bf5f00"/>
  <path stroke="null" transform="rotate(90 247.87371826171872,386.9949340820313) " id="svg_23" d="m137.373724,386.994725c0,-56.901466 0,-113.80292 0,-170.704386c12.964948,0 25.929907,0 38.894855,0c0,113.80292 0,227.605852 0,341.408772c-12.964948,0 -25.929896,0 -38.894855,0c0,-56.901489 0,-113.80292 0,-170.704397l0,0.000011zm57.458292,0c0,-56.901466 0,-113.80292 0,-170.704386c9.487053,-2.834075 14.47002,2.116754 12.397336,11.488607c0.1401,52.157509 0.280188,104.315017 0.420299,156.472503c23.986654,-17.606505 33.074378,-48.0917 40.50747,-75.94204c4.26604,18.137081 11.050851,40.224749 30.530275,46.135533c18.566367,5.725303 35.009266,-12.22177 34.815685,-30.608619c3.2428,-23.496474 3.691517,-47.907102 -1.283252,-71.144446c-4.657551,-14.701458 -18.616996,-26.842343 -34.141593,-25.87098c-12.776199,-6.041987 -27.105381,12.601385 -10.731386,19.425002c13.770215,15.028183 -2.236403,40.755129 -21.380548,34.73135c-18.560451,-4.085017 -23.496624,-29.222409 -12.757623,-43.433522c15.404784,-20.650049 43.802196,-23.254346 67.141275,-20.248689c30.368647,3.549088 53.466916,31.663854 56.741254,62.060523c4.181278,27.125517 -2.634021,57.772471 -24.741382,75.105291c-18.53616,16.031608 -45.782524,18.033484 -67.563407,8.239282c-5.296996,8.186323 -10.594015,16.372612 -15.891011,24.558912c5.204249,7.987171 10.408465,15.974353 15.61268,23.961489c26.374888,-12.143354 60.849702,-5.830267 78.285589,18.875804c24.557632,33.276891 19.767363,86.762769 -12.130983,113.319295c-20.034398,16.805151 -48.193618,16.862934 -72.003098,10.144982c-18.018573,-4.939181 -35.598004,-22.936547 -30.02555,-43.448215c2.811329,-17.874998 26.743607,-24.599855 38.40298,-11.2966c15.875891,14.732671 -7.134909,29.570018 -5.955555,43.770149c17.665501,13.75314 46.279185,0.804858 50.391381,-21.131664c6.537783,-24.084477 5.002348,-49.68608 1.804932,-74.175353c-1.714656,-16.464262 -15.65888,-33.062689 -32.946167,-28.470819c-18.184385,4.241538 -27.260623,23.687884 -30.375436,40.951088c-3.818531,12.642591 -5.036615,-12.087696 -8.016618,-16.136182c-6.194664,-20.290952 -17.001753,-40.219901 -33.639216,-53.012534c-1.71394,5.471434 -0.155075,12.296579 -0.703428,18.344792c-0.132796,49.581288 -0.265615,99.162531 -0.398401,148.743819c-9.492735,2.835741 -14.465211,-2.118695 -12.366491,-11.488676c0,-53.07188 0,-106.143807 0,-159.21571l-0.000011,0.000011z" stroke-opacity="null" stroke-width="1.5" fill="#bf5f00"/>
 </g>
</svg>