<svg width="500" height="500" xmlns="http://www.w3.org/2000/svg">
 <!-- Created with Method Draw - http://github.com/duopixel/Method-Draw/ -->

 <g>
  <title>background</title>
  <rect fill="none" id="canvas_background" height="502" width="502" y="-1" x="-1"/>
  <g display="none" overflow="visible" y="0" x="0" height="100%" width="100%" id="canvasGrid">
   <rect fill="url(#gridpattern)" stroke-width="0" y="0" x="0" height="100%" width="100%"/>
  </g>
 </g>
 <g>
  <title>Layer 1</title>
  <path id="svg_17" d="m395.355749,228.437624c0,0 48.670198,12.181011 60.229606,54.291992c0,0 10.342297,16.357304 7.300513,25.057945c-3.041784,8.700451 -7.909069,11.484709 -9.125683,12.528877c0,0 6.083899,-8.004719 -14.601026,-20.881652c0,0 -10.646741,-2.088146 -12.776022,-4.176292c-2.129282,-2.088146 -33.460782,-9.048697 -40.153071,8.352585c-6.692123,17.401472 -8.213015,46.635519 -7.300513,48.027553c0.912502,1.392034 31.93989,27.842203 34.677562,35.498676c2.737672,7.656473 17.338864,23.317475 23.726875,22.969608c6.387845,-0.347866 21.597427,-0.347866 25.551879,-6.264439c3.954285,-5.916573 15.513694,-6.612495 18.251366,0c2.737672,6.612305 1.82517,6.264439 1.82517,6.264439c0,0 9.734073,-2.436012 12.776022,6.264439c3.041784,8.700641 -4.563007,12.528877 -5.475509,12.528877c-0.912502,0 5.779621,-13.224989 -3.65034,-10.440731c0,0 -5.475343,0.261089 -5.475343,-2.088146c0,-2.349236 3.194006,12.267978 0,12.528877c0,0 -10.722769,-13.572855 -12.776022,-6.264439c0,0 -6.844179,1.566157 -9.125683,2.088146c-2.281338,0.521989 -1.82517,2.088146 -1.82517,2.088146c0,0 -5.931677,2.610135 -1.825004,10.440731c0,0 0,2.871225 -1.82517,4.176482c-1.82517,1.305068 1.140752,7.569506 9.125683,2.088146c0,0 2.053254,-2.088146 1.82517,0c-0.22825,2.088146 -8.213181,13.311956 -18.251366,-2.088146c0,0 -3.65034,-11.745989 1.82517,-14.617213c5.475343,-2.871225 -1.82517,-8.613674 -9.125683,-4.176292c0,0 -0.456334,8.352585 1.825004,10.440731c2.281504,2.088146 -3.878424,0.261089 -5.475343,-2.088146c-1.59692,-2.349046 -3.65034,4.959371 -3.65034,6.264439c0,1.305068 -2.053254,5.74245 -3.650174,4.176482c-1.597086,-1.566157 -16.654446,-3.393404 -16.426362,-2.088336c0.22825,1.305258 -7.072263,6.786618 -9.125683,4.176482c-2.053254,-2.610325 -13.460274,-15.922281 -14.601026,-14.617213c-1.140752,1.305068 7.756847,15.922281 12.776022,18.793506c5.019009,2.871035 26.008213,4.698282 32.852392,-2.088146c0,0 10.494519,-2.349236 10.950853,0c0,0 11.863354,5.48136 10.950853,8.352585c-0.912668,2.871225 -0.912668,1.305068 -1.82517,0c-0.912502,-1.305258 -8.441265,-6.003539 -9.125683,-4.176292c-0.684418,1.827057 0,2.088146 0,2.088146c0,0 9.582017,3.132124 9.125683,4.176292c0,0 11.178937,5.220271 9.125683,16.70517c0,0 -3.42209,2.871225 -3.65034,0c-0.228084,-2.871225 1.368836,-10.701821 -5.475343,-10.440731c0,0 -1.140752,4.176292 -5.475343,2.088146c-4.334757,-2.088146 2.509422,-6.525528 -20.076535,-4.176292c0,0 0.912502,4.959371 3.650174,6.264439c2.737672,1.305068 7.300679,1.305068 7.300679,6.264439c0,0 2.965756,4.176292 0,8.352585c0,0 -1.82517,1.305068 -1.82517,0c0,-1.305068 1.82517,-7.569506 -7.300513,-10.440731c-9.125849,-2.871225 -7.300679,-2.088146 -7.300679,-2.088146c0,0 1.597086,12.528877 -1.82517,12.528877c-3.42209,0 2.281504,7.830596 9.125849,4.176292c0,0 0.684252,-3.132124 1.825004,-2.088146c1.140752,1.044168 -5.703427,16.183181 -18.251366,-2.088146c0,0 -4.106507,-9.657653 0,-12.528877c0,0 2.737672,-9.657653 -10.950853,-6.264439c0,0 -5.703427,1.043978 -5.475343,0c0.228084,-1.044168 -0.912502,4.959371 0,6.264439c0.912502,1.305068 -10.722769,-2.871225 -10.950853,-4.176292l-3.650174,0c0,0 2.129282,12.181011 3.650174,12.528877c1.520892,0.347866 -6.996235,-5.916573 -9.125683,-10.440731c0,0 0,8.700451 1.82517,10.440731c1.82517,1.74028 -8.213181,-9.396753 -7.300513,-10.440731c0,0 0.304112,11.136843 3.650174,16.70517c3.346062,5.568327 -7.300513,-5.220271 -9.125683,-8.352585c0,0 -1.825004,1.392034 0,4.176292c1.82517,2.784258 -6.083733,-2.784258 -7.300513,-10.440731c0,0 -5.171231,-4.872404 -7.300513,-6.264439c0,0 0.304112,11.832765 1.82517,12.528877c0,0 -4.258729,-3.828426 -5.475509,-8.352585c0,0 -2.433394,4.176292 -1.82517,6.264439c0,0 -6.996235,-9.048697 -9.125683,-16.70517c-2.129282,-7.656473 -1.825004,2.088146 -1.825004,2.088146c0,0 -4.258729,-0.696302 -7.300679,-14.617024c0,0 -17.642976,21.229328 -23.726709,22.969608c-6.083733,1.74009 7.300513,-8.352585 7.300513,-8.352585c0,0 -10.038185,3.48018 -10.950853,6.264439c0,0 0.912668,-3.828426 5.475509,-8.352585c4.562841,-4.524348 -5.475509,-2.088146 -5.475509,-2.088146c0,0 -2.129282,-0.696302 -1.825004,-22.969798c0,0 -13.68869,16.70536 -21.901705,16.70536c-8.213181,0 7.604791,-6.960741 9.125683,-12.529067c1.520892,-5.568327 -3.346062,-3.828236 -5.475509,-2.088146c-2.129282,1.74028 -17.947088,12.181011 -18.251366,14.617213c-0.304112,2.436012 -1.825004,-4.176292 -1.825004,-4.176292c0,0 -3.65034,2.088146 -7.300679,2.088146c-3.650174,0 10.646575,-7.656473 12.776022,-12.529067c2.129448,-4.872404 -19.772257,8.700641 -27.377048,14.617213c0,0 -6.388011,2.436012 -7.300513,0c-0.912668,-2.436202 10.950853,-11.832765 10.950853,-12.529067c0,-0.696112 4.258563,-6.612305 -3.65034,-2.088146c-7.908903,4.524348 -18.251366,1.044168 -25.551879,4.176292c-7.300679,3.132314 -15.209416,12.876933 -25.552045,12.529067c-10.342463,-0.348056 -10.339973,14.617024 -29.202052,14.617024c-10.950853,0 -6.388011,4.872404 -10.950853,4.176292c-4.562841,-0.696112 5.475343,-6.264439 5.475343,-6.264439c0,0 -10.950853,4.176292 -12.775856,4.176292c-1.82517,0 -10.038351,0.347866 9.125517,-8.352585c0,0 -13.992636,0 -9.125517,-2.088146c4.866953,-2.088146 17.034586,-6.264439 16.426196,-8.352585c-0.608556,-2.088146 -13.080134,-1.74028 -9.125683,-4.176292c3.954285,-2.436202 25.551879,-11.484899 20.076535,-12.529067c-5.475509,-1.043978 -13.384412,-1.392034 -9.125683,-4.176292c4.258729,-2.784258 56.579101,-9.396563 63.87978,-16.70517c7.300513,-7.308607 26.160269,-28.537935 31.027222,-29.234047c4.867119,-0.696302 0,-5.916573 -3.650174,-4.176482c-3.65034,1.74028 -6.996401,-1.043978 -5.475509,-12.528877c1.521058,-11.484709 -15.654462,25.184787 -25.551879,12.528877c-5.171231,-6.612305 -1.21678,-11.484709 -7.300513,-10.440731c-6.083733,1.044168 -5.779621,-7.656473 -7.300513,-4.176292c-1.520892,3.48018 -14.296914,25.057945 -20.076535,22.969798c-5.779621,-2.088146 -1.520892,-3.48018 -5.475509,-4.176292c-3.954451,-0.696302 -6.692123,-2.088146 -7.300513,-6.264629c-0.60839,-4.176292 -4.258563,2.784448 -5.475343,-4.176292c-1.21678,-6.960551 -2.129282,-15.661002 -7.300513,-8.352585c-5.171397,7.308607 -6.996567,2.436202 -7.300679,0c-0.304112,-2.436012 -11.254965,1.392034 -10.950687,-6.264439c0.303946,-7.656473 -10.646741,2.436202 -9.125849,-6.264439c1.521058,-8.700451 -9.251013,-1.179175 -7.300513,-8.352585c4.258729,-15.661192 -14.601026,-1.392034 -12.775856,-8.352585c1.825004,-6.960551 -8.821571,-1.392034 -7.300679,-8.352585c1.521058,-6.960551 -10.127991,-4.542957 -9.125683,-10.440731c2.129282,-12.529067 -10.950687,-3.828426 -9.125683,-14.617213c1.82517,-10.788597 -8.305809,-0.072346 -7.300513,-8.352585c1.521058,-12.528877 -13.036974,-7.979085 -9.125683,-16.70517c6.083899,-13.573045 -6.255709,-7.738313 -3.65034,-14.617024c3.954451,-10.440731 -25.407459,1.158288 -18.251366,-16.70536c3.346228,-8.352585 -19.872853,-13.913696 -9.125683,-20.881462c18.251366,-11.832765 -27.985272,-5.916573 -5.475343,-25.057755c20.989037,-11.136843 22.275205,-12.185758 -3.65034,-10.440731c-10.342463,0.696112 -25.856157,-15.661192 -10.950687,-16.70536c14.905304,-1.043978 45.324136,-9.396563 10.950687,-12.528877c-34.373284,-3.132124 -35.590063,-17.401282 -21.901539,-16.70517c13.688524,0.696112 67.225841,0.696112 52.928927,-4.176292c-14.296914,-4.872404 -79.72647,-16.779984 -54.754097,-29.234047c11.863354,-5.916573 95.457458,25.541577 71.180293,4.176292c-3.954285,-3.48018 -42.586465,-16.009248 -56.579267,-33.410529c-13.992636,-17.401282 -11.254965,-19.837484 -3.650174,-16.70517c7.604791,3.132124 95.819172,49.071531 82.131145,33.41034c-2.43356,-2.784258 -52.928927,-30.278215 -60.229606,-54.291802c-7.300513,-24.013776 -0.304112,-17.749338 5.475509,-10.440921c5.779455,7.308607 88.785587,77.100769 74.830632,54.291992c-4.258729,-6.960551 -41.369685,-34.802374 -49.278754,-62.644576c-7.909069,-27.842013 -1.82517,-20.18535 3.65034,-12.528877c5.475343,7.656473 90.056648,111.970741 76.655636,75.173454c-3.041784,-8.352585 -29.810608,-34.454508 -32.852392,-58.468284c-3.041784,-24.013776 4.866953,-14.96489 9.125683,-6.264439c4.258729,8.700641 64.184058,116.936568 65.70495,98.143252c0,0 0.304278,0.347866 1.82517,0c1.520892,-0.348056 -1.21678,-10.092865 1.82517,-8.352585c0,0 1.21678,-7.656473 3.650174,-6.264629c2.43356,1.392034 4.867119,0.348056 5.475509,-8.352585c0.608224,-8.700451 18.555478,1.392034 23.726709,45.939407c0,0 3.65034,4.518652 3.65034,14.617024c0,5.22046 21.901539,30.626271 34.677562,29.234237c12.776022,-1.392034 31.027388,29.234047 36.502731,31.322193c5.475343,2.088146 17.642976,14.617024 36.502731,2.088146c18.859756,-12.528877 37.415399,-16.70517 21.901705,-18.793316c-15.513694,-2.088146 -12.471744,-9.048697 -5.475343,-10.440731c6.996235,-1.392034 37.415233,-2.088146 27.377048,-8.352585c-10.038351,-6.264629 -18.709692,-39.734022 -5.475509,-31.322383c5.475509,3.48018 24.920747,34.405518 21.901705,12.528877c-0.912668,-6.612305 -12.776022,-14.617024 -9.125683,-37.586632c3.650174,-22.969798 8.711181,-4.695813 9.125683,-2.088146c0.60839,3.828236 15.365456,51.358485 18.251366,27.145901c0.912502,-7.656473 -6.692123,-17.749338 -3.65034,-45.939407c3.041784,-28.189879 7.300513,0 7.300513,0c0,0 8.679143,28.868522 7.300679,43.851261c-0.608556,6.612495 7.908903,4.176292 7.300513,-8.352585c-0.608556,-12.528877 -5.171231,-40.022834 -1.82517,-39.674968c3.346228,0.348056 13.371796,18.638561 10.950853,33.410529c-0.912668,5.568327 13.080134,11.136843 -1.82517,22.969608c-14.905138,11.832765 -31.027388,35.498676 -31.027388,35.498676c0,0 3.606184,15.294717 -14.601026,22.969608c-11.559243,4.872404 -1.82517,14.617024 -1.82517,14.617024z" stroke-opacity="null" stroke-width="1.5" stroke="null" fill="#0000bf"/>
 </g>
</svg>