<svg width="500" height="500" xmlns="http://www.w3.org/2000/svg">
 <!-- Created with Method Draw - http://github.com/duopixel/Method-Draw/ -->

 <g>
  <title>background</title>
  <rect fill="none" id="canvas_background" height="502" width="502" y="-1" x="-1"/>
  <g display="none" overflow="visible" y="0" x="0" height="100%" width="100%" id="canvasGrid">
   <rect fill="url(#gridpattern)" stroke-width="0" y="0" x="0" height="100%" width="100%"/>
  </g>
 </g>
 <g>
  <title>Layer 1</title>
  <path stroke="#426373" id="svg_9" d="m250.499998,3.000007c-137.520504,0 -249.000001,108.793246 -249.000001,243.000007c0,134.20676 111.479497,243.000007 249.000001,243.000007c137.520504,0 249.000001,-108.793246 249.000001,-243.000007c0,-134.20676 -111.479497,-243.000007 -249.000001,-243.000007zm195.924316,266.239996c0.017132,0.033439 0.068529,0.033439 0.085661,0.066878c-0.376909,3.126531 -0.925141,6.186184 -1.456241,9.262557c-0.256984,-0.200633 -0.582496,-0.417985 -0.805215,-0.601899c-1.764621,-1.504748 -4.351589,-2.140085 -5.448053,-1.922733c-2.689762,0.535021 3.923283,5.099422 4.574309,5.718041c0.15419,0.150475 0.531099,0.501583 1.062199,0.969726c-17.629077,88.813543 -97.807968,156.125916 -193.919844,156.125916c-70.636233,0 -132.535022,-36.448329 -167.484795,-90.970348c2.107266,-0.267511 4.111738,-0.267511 4.797028,-1.270676c0.873744,-1.287395 1.747489,-4.029379 3.049539,-5.534127c1.319183,-1.488028 2.82682,-3.828746 2.175795,-4.88207c-0.668157,-1.070043 1.730356,-5.751479 1.507637,-7.005436c-0.222719,-1.270676 -2.175795,-4.280171 1.096463,-6.804803s6.750103,-6.386817 6.972822,-7.423421c0.205587,-1.053323 2.843952,-5.534127 2.604101,-7.657493c-0.205587,-2.123366 -2.604101,-4.681437 -4.111738,-5.316775c-1.541902,-0.618618 -4.797028,-0.835971 -6.099078,-2.524632c-1.319183,-1.7221 -5.002615,-3.394042 -6.304665,-2.976056c-1.30205,0.417985 -3.494977,0.835971 -5.225334,-0.250791c-1.747489,-1.036604 -4.574309,-2.323999 -5.65364,-3.15997c-1.113596,-0.835971 -3.923283,-1.471309 -5.225334,-1.471309c-1.319183,0 -1.113596,-0.86941 -3.049539,1.688661c-1.953076,2.558071 0,3.410761 -3.494977,2.959337c-3.494977,-0.384547 0.428306,-0.601899 2.415646,-3.15997c1.935943,-2.541351 -0.222719,-4.046099 -2.415646,-3.394042c-2.158662,0.635338 -0.651025,1.922733 -4.12887,2.558071c-3.477845,0.601899 -3.477845,-1.504748 -1.30205,-1.922733s6.081946,-2.323999 6.081946,-3.176689c0,-0.85269 -0.428306,-3.193409 -2.175795,-3.193409s-1.319183,-2.106647 -3.923283,-4.86535c-1.576166,-1.688661 -3.357919,-2.741984 -5.12254,-3.410761c-1.541902,-9.680542 -2.569836,-19.51156 -2.569836,-29.610087c0,-47.550022 17.800399,-91.053945 47.130797,-124.693412c0.411174,-0.334388 0.822348,-0.56846 1.182125,-0.601899c1.439108,-0.150475 5.310995,-0.417985 8.737443,-0.986446c3.460713,-0.56846 7.161277,-2.691826 8.377666,-2.558071c1.182125,0.133755 4.12887,0.133755 3.186597,-0.702216c-0.959406,-0.953007 -2.29572,-2.925898 -4.28306,-2.925898s-0.137058,-3.109812 0.394042,-3.109812c0.513967,0 3.186597,0.417985 3.049539,1.839136c-0.119926,1.42115 0.805215,3.243567 3.443581,2.691826c2.67263,-0.56846 2.261456,-2.708546 1.747489,-3.260286c-0.548232,-0.56846 -0.942273,-1.989611 -1.456241,-2.976056c-0.531099,-1.003165 -0.394042,-2.273841 2.398514,-2.558071c2.775423,-0.267511 6.613045,1.120201 6.475987,-1.13692s0,-4.681437 0.788083,-5.952112c0.805215,-1.253956 2.535572,-2.123366 1.593298,-2.541351c-0.908009,-0.417985 -2.107266,0.56846 -3.049539,-1.554906c-0.925141,-2.123366 0.805215,-3.678272 1.850282,-4.530962c0.342645,-0.250791 1.14786,-1.003165 2.124398,-1.872575c32.225747,-22.270263 71.45858,-35.495322 113.878011,-35.495322c55.045893,0 104.883584,22.119789 140.724233,57.681989c-0.137058,0.367827 -0.171322,0.86941 -0.531099,0.936287c-1.319183,0.217352 -2.843952,1.053323 -3.066671,-0.85269c-0.222719,-1.906014 -0.222719,-5.534127 -1.747489,-3.394042c-1.52477,2.123366 -2.175795,2.123366 -2.175795,3.193409c0,1.053323 1.30205,2.123366 0.873744,4.029379c-0.445438,1.906014 -0.445438,3.193409 0.239851,3.193409c0.616761,0 2.158662,-1.922733 4.094606,-2.357438c1.98734,-0.417985 5.465185,-1.471309 5.687904,0.434705c0.222719,1.922733 2.381382,2.541351 0.222719,3.394042c-2.192927,0.85269 -4.574309,0.434705 -5.019747,-0.85269c-0.428306,-1.287395 -1.953076,-1.287395 -3.477845,-0.217352c-1.507637,1.053323 -4.779895,4.88207 -4.779895,4.88207s-5.242466,2.323999 -5.876359,1.906014c-0.68529,-0.417985 1.730356,-2.758704 3.477845,-3.812027c1.747489,-1.070043 3.049539,-3.410761 2.398514,-4.046099c-0.651025,-0.635338 -1.507637,-4.664717 -1.079331,-5.73476c0.428306,-1.053323 2.381382,-2.541351 0.222719,-3.611394c-2.175795,-1.053323 -3.717696,-2.340718 -5.448053,-2.976056s-3.700564,2.541351 -5.225334,3.410761c-1.52477,0.85269 -1.30205,1.906014 -3.272258,2.123366c-1.953076,0.217352 -3.237994,2.758704 0,4.246732c3.272258,1.488028 4.368722,2.541351 3.494977,3.410761c-0.873744,0.85269 -4.574309,-0.417985 -4.574309,-0.417985s-2.82682,-1.270676 -4.591441,-1.270676c-1.730356,0 -3.923283,-1.053323 -5.65364,-1.270676c-1.747489,-0.217352 -5.242466,-0.217352 -6.081946,0.635338c-0.873744,0.85269 -3.066671,3.394042 -4.797028,2.541351c-1.730356,-0.85269 -1.730356,-1.705381 -4.12887,-0.85269c-2.398514,0.85269 -4.779895,-0.635338 -6.081946,0.635338c-1.319183,1.270676 -0.222719,1.270676 -4.368722,0c-4.12887,-1.270676 -3.237994,0.85269 -7.178409,1.488028s-6.304665,-0.635338 -7.401128,0.635338c-1.096463,1.287395 -2.621233,3.628113 -3.255126,2.123366c-0.651025,-1.471309 2.158662,-4.029379 1.062199,-4.88207c-1.062199,-0.85269 -5.65364,-0.417985 -6.287533,0.217352c-0.668157,0.635338 -0.239851,2.976056 0.188455,3.828746c0.445438,0.835971 1.096463,4.246732 -0.188455,3.611394c-1.319183,-0.635338 -1.096463,-2.775423 -2.415646,-2.541351c-1.30205,0.217352 -2.82682,0.85269 -3.477845,1.287395c-0.651025,0.417985 -3.272258,0.417985 -3.923283,1.270676c-0.633893,0.85269 0.239851,3.193409 -0.873744,3.394042c-1.079331,0.217352 -1.953076,1.070043 -4.351589,-0.417985c-2.398514,-1.488028 -2.398514,-0.635338 -3.049539,-0.200633c-0.651025,0.417985 -3.700564,2.123366 -3.923283,0.200633c-0.222719,-1.906014 0.428306,-2.541351 -1.52477,-3.828746c-1.970208,-1.270676 -0.445438,-1.270676 2.175795,-0.417985c2.604101,0.835971 5.876359,1.253956 10.656254,-0.217352c4.797028,-1.488028 6.767235,-2.123366 4.797028,-2.976056c-1.970208,-0.835971 -3.923283,-1.688661 -6.95569,-2.123366c-3.066671,-0.417985 -7.195542,-0.417985 -11.992569,-2.123366c-4.779895,-1.705381 -5.876359,-2.340718 -7.829434,-2.758704c-1.970208,-0.434705 -13.928513,-2.340718 -19.393698,-1.488028c-5.430921,0.85269 -20.438764,4.681437 -21.329641,5.316775s-2.192927,3.176689 -5.002615,5.316775c-2.82682,2.123366 -8.052154,7.005436 -12.198156,7.858126c-4.12887,0.85269 -8.925898,4.246732 -8.925898,5.099422c0,0.85269 1.730356,4.046099 1.30205,4.681437c-0.428306,0.635338 0.856612,3.828746 3.272258,4.681437c2.381382,0.835971 6.527384,0.635338 6.732971,-0.652057c0.239851,-1.270676 3.494977,-4.029379 3.717696,-2.123366c0.222719,1.922733 2.398514,4.88207 1.953076,6.152745c-0.428306,1.287395 0,2.558071 1.541902,2.340718c1.507637,-0.200633 9.576923,-1.906014 9.576923,-1.906014s2.621233,-1.070043 2.175795,-2.775423c-0.445438,-1.688661 2.843952,-4.029379 3.477845,-4.664717c0.651025,-0.635338 3.049539,-3.193409 0.239851,-4.029379c-2.861084,-0.85269 -5.019747,-1.070043 -1.970208,-3.611394s5.002615,0 8.925898,-3.828746c3.923283,-3.828746 -0.873744,-4.88207 3.272258,-5.099422c4.12887,-0.217352 8.497592,-0.417985 7.606715,0.85269c-0.856612,1.270676 -5.859227,4.046099 -8.703179,5.316775c-2.843952,1.287395 -2.398514,3.611394 -1.30205,4.88207c1.079331,1.270676 1.541902,4.246732 3.494977,3.828746c1.935943,-0.417985 4.351589,-1.906014 6.510252,-1.688661c2.192927,0.200633 6.561649,-0.217352 7.195542,-0.217352c0.668157,0 3.700564,2.976056 1.953076,3.394042c-1.730356,0.417985 -3.923283,0.217352 -7.623848,0.417985c-3.683432,0.217352 -7.812302,0.217352 -7.812302,0.85269c0,0.652057 5.002615,2.123366 3.255126,3.193409c-1.747489,1.053323 -3.477845,-0.217352 -5.670772,-0.434705c-2.175795,-0.200633 -3.477845,2.775423 -4.12887,4.464084c-0.668157,1.705381 1.079331,4.681437 -2.175795,3.611394c-3.272258,-1.053323 -5.670772,-1.053323 -6.527384,-0.635338c-0.873744,0.417985 -3.477845,1.270676 -5.670772,1.906014c-2.158662,0.635338 -1.30205,-1.053323 -4.146002,-1.053323c-2.809688,0 -2.809688,0 -2.809688,0l-1.764621,0.217352c0,0 -1.730356,-1.053323 -1.953076,-2.758704c-0.222719,-1.705381 0.856612,-3.611394 -0.222719,-4.029379c-1.096463,-0.434705 -5.002615,0.200633 -5.65364,1.471309c-0.651025,1.270676 -1.319183,3.611394 -0.445438,4.681437c0.890877,1.053323 3.494977,3.176689 1.096463,2.541351c-2.398514,-0.635338 -5.430921,-0.85269 -7.178409,0.434705c-1.730356,1.270676 -4.779895,4.029379 -4.779895,4.029379s-5.448053,0.417985 -5.448053,1.705381c0,1.287395 0,2.976056 -1.953076,3.193409c-1.970208,0.217352 -4.591441,0.835971 -7.195542,1.270676c-2.621233,0.417985 -2.381382,1.471309 -5.430921,1.705381s-3.494977,1.488028 -0.651025,1.906014c2.82682,0.417985 7.161277,2.123366 7.383996,4.029379c0.239851,1.906014 -0.222719,4.046099 -1.30205,5.952112c-0.736686,1.320834 -5.225334,0.434705 -7.846567,0.434705c-2.604101,0 -7.812302,-0.85269 -10.005229,0c-2.175795,0.85269 -1.747489,5.099422 -1.096463,7.005436c0.668157,1.906014 -0.205587,2.976056 -1.079331,3.611394c-0.873744,0.635338 -1.113596,2.541351 0,3.410761c1.079331,0.85269 1.953076,2.758704 2.843952,2.976056c0.873744,0.217352 3.683432,-0.635338 4.779895,0.417985c1.096463,1.070043 2.175795,3.611394 2.82682,2.976056c0.668157,-0.635338 1.52477,-3.394042 2.621233,-2.775423c1.096463,0.652057 3.700564,-0.200633 5.670772,-0.417985s3.032407,-2.340718 5.002615,-3.410761c1.953076,-1.053323 0.856612,-1.053323 0.222719,-2.340718c-0.651025,-1.270676 1.953076,-2.758704 3.494977,-4.246732c1.507637,-1.488028 4.334457,-0.217352 5.002615,-1.922733c0.651025,-1.705381 0.873744,-4.664717 2.586968,-4.464084c1.764621,0.217352 4.163135,1.270676 5.670772,1.270676c1.52477,0 4.779895,-2.340718 5.687904,-2.758704c0.856612,-0.417985 4.12887,-0.217352 4.574309,1.705381c0.428306,1.906014 4.12887,4.246732 5.002615,4.664717c0.873744,0.417985 6.527384,2.123366 7.418261,2.758704c0.856612,0.635338 2.158662,2.558071 2.604101,4.246732c0.428306,1.705381 1.953076,1.705381 2.192927,0.217352c0.205587,-1.488028 -1.113596,-4.246732 0.428306,-4.046099c1.507637,0.217352 3.272258,-0.434705 3.272258,-0.434705s-4.163135,-2.758704 -5.670772,-3.394042c-1.507637,-0.635338 -4.368722,-1.906014 -5.670772,-4.029379c-1.30205,-2.123366 -4.574309,-2.558071 -4.351589,-4.664717c0.222719,-2.123366 3.272258,-0.85269 5.002615,0.85269c1.747489,1.705381 6.099078,4.029379 7.623848,5.517408c1.507637,1.488028 3.923283,2.123366 4.574309,4.046099c0.668157,1.906014 2.604101,4.029379 3.255126,4.88207c0.651025,0.85269 2.82682,5.534127 3.494977,6.58745c0.651025,1.053323 2.82682,-0.200633 3.923283,-1.053323c1.079331,-0.85269 3.066671,-1.270676 3.272258,-2.976056c0.222719,-1.705381 -2.621233,-2.976056 -3.477845,-3.611394c-0.873744,-0.635338 2.175795,-1.270676 3.272258,-2.123366c1.079331,-0.835971 3.032407,-2.340718 3.906151,-1.053323c0.873744,1.287395 0.445438,6.370098 0.873744,7.222788c0.428306,0.85269 4.779895,2.123366 5.670772,3.193409c0.856612,1.053323 4.574309,1.488028 5.208201,0.85269c0.668157,-0.635338 4.146002,0.434705 5.036879,0.635338c0.83948,0.217352 3.460713,-0.417985 5.208201,-0.835971c1.764621,-0.417985 3.494977,-1.705381 3.272258,1.053323c-0.222719,2.758704 -0.873744,7.005436 -3.066671,9.128802c-2.175795,2.123366 -1.30205,3.193409 -3.460713,3.193409c-1.027935,0 -1.935943,0 -2.67263,0.351108c-0.702422,-1.086762 -1.67896,-1.956172 -2.998142,-1.621783c-2.604101,0.635338 -5.893491,0.635338 -8.052154,3.176689c-2.192927,2.558071 -3.049539,2.758704 -3.494977,1.906014c-0.428306,-0.85269 6.321797,-4.464084 5.430921,-5.534127c-0.856612,-1.053323 -6.081946,-0.635338 -8.925898,-0.635338c-2.843952,0 -5.225334,-1.705381 -7.418261,-2.123366c-2.158662,-0.417985 -5.002615,2.123366 -7.161277,4.246732c-2.192927,2.123366 -3.700564,0.635338 -5.670772,0.635338c-1.970208,0 -5.670772,-2.758704 -5.670772,-2.758704s-3.700564,-1.488028 -5.225334,-1.488028c-1.507637,0 -4.574309,-2.758704 -5.448053,-2.758704c-0.856612,0 -3.255126,-1.922733 -1.507637,-2.775423c1.730356,-0.835971 3.460713,0.85269 1.730356,-3.828746c-1.730356,-4.664717 -5.65364,-3.611394 -7.178409,-2.976056c-1.507637,0.652057 -12.403743,0.417985 -13.277487,0.417985c-0.873744,0 -7.178409,2.123366 -9.131485,2.976056c-1.98734,0.85269 -5.448053,1.922733 -6.321797,2.340718c-0.873744,0.417985 -5.448053,-0.85269 -7.418261,0.217352c-2.586968,1.404431 -4.985482,3.611394 -5.65364,3.611394c-0.651025,0 -2.621233,1.488028 -3.923283,4.681437c-1.319183,3.176689 0.222719,5.935393 -2.192927,7.005436c-2.381382,1.053323 -6.750103,3.410761 -8.48046,5.099422c-1.747489,1.688661 -3.923283,7.657493 -6.081946,10.416197c-2.175795,2.758704 0,5.300055 0.428306,7.005436c0.428306,1.688661 1.953076,4.88207 -0.428306,7.874845c-2.398514,2.976056 -2.175795,4.447365 -3.272258,4.664717c-1.079331,0.217352 1.079331,1.053323 1.507637,3.176689c0.428306,2.140085 -1.953076,4.263451 2.192927,6.169465c4.12887,1.889294 6.081946,3.628113 7.161277,6.136026c1.096463,2.558071 6.544516,6.804803 6.544516,6.804803s3.923283,3.42748 5.893491,4.898789c1.953076,1.488028 2.604101,0.635338 3.032407,-0.835971c0.428306,-1.504748 3.049539,-1.738819 6.081946,-1.738819c3.049539,0 5.225334,0.668777 8.274873,0.234072c3.049539,-0.417985 6.099078,-2.357438 7.195542,-2.775423c1.079331,-0.417985 4.779895,-2.741984 7.589583,-1.053323c2.843952,1.7221 2.415646,4.029379 3.940416,5.550846c1.507637,1.471309 4.111738,0.618618 6.081946,-0.85269c1.953076,-1.504748 1.096463,-0.86941 3.477845,0.417985c2.398514,1.253956 3.494977,2.524632 1.319183,4.464084c-2.192927,1.889294 -0.873744,4.898789 -2.192927,7.858126c-1.30205,2.976056 -1.079331,3.394042 1.319183,4.647998c2.398514,1.270676 6.750103,9.162241 8.052154,10.666988c1.319183,1.471309 -0.428306,5.718041 1.096463,8.276111c1.52477,2.524632 3.049539,4.246732 1.319183,5.534127c-1.764621,1.253956 -4.797028,3.611394 -5.002615,7.858126s0.873744,7.206069 1.747489,8.710816s3.032407,5.534127 4.12887,7.005436c1.096463,1.488028 2.398514,5.099422 2.604101,7.440141c0.222719,2.340718 -0.411174,5.116142 0.668157,6.370098c1.096463,1.270676 1.747489,3.193409 3.700564,4.88207c1.970208,1.7221 2.604101,5.316775 2.604101,5.316775s0.668157,1.488028 0.873744,3.828746c0.205587,2.340718 0.428306,3.812027 2.604101,4.88207c2.158662,1.053323 3.683432,1.270676 4.797028,0.217352c1.079331,-1.053323 6.527384,-1.287395 9.354204,-1.053323c2.82682,0.217352 6.081946,-1.253956 8.925898,-3.176689s6.972822,-7.005436 8.497592,-8.493464c1.52477,-1.504748 5.002615,-4.263451 4.591441,-5.952112c-0.428306,-1.688661 -1.319183,-3.394042 0.411174,-4.246732c1.747489,-0.86941 5.893491,-2.541351 6.099078,-3.828746c0.222719,-1.287395 -1.541902,-6.60417 -1.970208,-7.640774c-0.411174,-1.070043 1.096463,-3.009495 2.82682,-5.116142c1.764621,-2.140085 7.212674,-3.611394 8.069286,-4.464084c0.873744,-0.886129 3.272258,-4.464084 3.717696,-7.239508c0.411174,-2.792143 -0.873744,-6.169465 0,-7.640774c0.856612,-1.504748 0.222719,-2.758704 -1.764621,-4.480804c-1.953076,-1.705381 -1.52477,-6.804803 -2.175795,-7.640774c-0.633893,-0.85269 -0.222719,-5.333494 1.079331,-5.768199c1.30205,-0.384547 4.146002,-4.664717 5.893491,-6.570731c1.747489,-1.906014 6.750103,-7.858126 9.148617,-8.292831c2.381382,-0.417985 6.081946,-3.828746 6.304665,-5.73476c0.222719,-1.922733 6.510252,-9.145521 6.750103,-10.61683c0.222719,-1.504748 2.843952,-7.022155 1.747489,-8.30955c-1.062199,-1.270676 -9.576923,1.922733 -10.656254,2.357438c-1.096463,0.417985 -4.12887,2.123366 -7.64098,1.889294c-3.460713,-0.217352 -1.953076,-2.959337 -2.175795,-4.246732c-0.205587,-1.270676 -3.906151,-6.152745 -4.779895,-6.370098c-0.873744,-0.200633 -3.477845,-2.775423 -4.574309,-5.300055c-1.079331,-2.558071 -2.604101,-5.73476 -4.351589,-7.657493c-1.747489,-1.906014 -2.82682,-6.353378 -4.591441,-9.346154c-1.730356,-2.976056 -3.237994,-6.804803 -4.779895,-9.563507c-0.359777,-0.685496 -0.770951,-1.320834 -1.14786,-1.956172c2.021605,-0.484863 4.951218,-1.370992 5.310995,-0.150475c0.411174,1.471309 2.82682,4.664717 3.255126,7.005436s2.82682,1.488028 3.049539,3.611394c0.239851,2.140085 2.398514,7.239508 3.255126,7.858126c0.890877,0.635338 4.797028,4.046099 5.448053,5.316775c0.651025,1.270676 1.52477,2.976056 2.175795,6.169465c0.651025,3.176689 1.30205,7.423421 3.066671,8.058759c1.747489,0.635338 7.606715,-1.070043 8.703179,-1.705381s8.257741,-4.046099 10.878973,-4.263451c2.621233,-0.200633 3.066671,-1.922733 6.304665,-2.541351c3.272258,-0.635338 5.670772,-2.959337 7.846567,-4.681437c2.175795,-1.688661 4.797028,-5.935393 5.65364,-7.423421c0.890877,-1.471309 3.066671,-2.541351 1.970208,-4.230012c-1.079331,-1.7221 -5.670772,-4.246732 -7.418261,-4.480804c-1.747489,-0.200633 -1.52477,-2.976056 -2.604101,-2.976056s-0.873744,1.471309 -3.049539,2.558071c-2.175795,1.053323 -4.368722,3.176689 -5.893491,2.758704s0.445438,-1.488028 -1.935943,-3.394042s-3.28939,-2.340718 -3.28939,-3.812027c0,-1.488028 -4.762763,-4.263451 -5.208201,-6.386817c-0.445438,-2.123366 3.255126,-5.099422 4.351589,-3.176689c1.079331,1.906014 1.970208,4.88207 4.779895,6.152745c2.82682,1.270676 5.448053,3.410761 6.767235,3.828746c1.30205,0.417985 4.574309,-2.340718 5.65364,-1.906014c1.079331,0.401266 3.272258,4.230012 5.242466,4.88207c1.935943,0.635338 8.48046,0.85269 9.576923,0.85269s5.65364,0.217352 6.527384,-1.053323c0.873744,-1.270676 1.52477,-1.270676 2.621233,-1.270676c1.062199,0 3.032407,3.828746 4.574309,4.246732c1.52477,0.417985 4.351589,0.217352 4.12887,2.992776c-0.205587,2.741984 1.30205,5.099422 2.82682,5.300055c1.541902,0.200633 5.019747,-3.193409 5.019747,-3.193409s0,5.316775 -0.205587,7.239508c-0.239851,1.889294 2.381382,8.928169 2.381382,8.928169s3.255126,6.570731 4.12887,8.058759s4.574309,5.935393 4.574309,7.858126c0,1.922733 0.428306,4.898789 1.764621,4.898789c1.30205,0 2.604101,-3.394042 4.111738,-5.534127c1.559034,-2.106647 1.98734,-5.099422 2.621233,-7.222788c0.651025,-2.123366 0.651025,-5.952112 0.651025,-7.423421c0,-1.504748 1.284918,-2.775423 4.368722,-4.046099c3.049539,-1.270676 5.208201,-4.88207 7.812302,-6.804803c2.621233,-1.922733 2.415646,-5.099422 7.64098,-5.099422c5.225334,0 4.762763,0 6.081946,-1.287395c1.30205,-1.270676 2.586968,-2.123366 3.255126,0.217352c0.651025,2.340718 4.351589,5.73476 5.002615,6.58745c0.651025,0.86941 1.953076,3.193409 1.764621,5.751479c-0.222719,2.541351 0.205587,5.517408 1.284918,5.517408s3.272258,-3.611394 3.272258,-3.611394s4.779895,-3.15997 4.574309,0.217352c-0.239851,3.394042 0.428306,7.005436 0.428306,9.112082c0,0.886129 0.719554,2.257121 1.507637,3.511078c-0.085661,0.986446 -0.068529,1.989611 -0.15419,2.976056c-1.559034,0.401266 -1.576166,3.310445 -0.736686,4.363768zm-120.850833,-89.047615c1.30205,0.835971 1.747489,2.123366 2.604101,3.394042c0.890877,1.270676 2.398514,0.835971 3.477845,1.906014c1.079331,1.070043 -3.049539,2.340718 -1.284918,3.611394c1.730356,1.287395 2.586968,6.370098 2.82682,7.657493c0.222719,1.270676 -4.779895,1.906014 -6.321797,1.705381c-1.52477,-0.217352 -6.064814,-1.705381 -7.623848,-2.123366c-1.52477,-0.434705 -2.381382,-5.73476 -0.428306,-5.534127c1.98734,0.217352 2.415646,-0.417985 4.574309,-2.323999c2.192927,-1.922733 -3.237994,-2.775423 -4.762763,-3.193409c-1.52477,-0.417985 -4.591441,-5.099422 -5.670772,-6.58745c-1.062199,-1.488028 -0.239851,-3.812027 2.415646,-5.534127c1.30205,-0.85269 4.779895,1.053323 6.527384,0c1.730356,-1.053323 3.477845,-2.340718 4.12887,-2.758704c0.668157,-0.417985 5.019747,0.635338 5.65364,1.906014c0.668157,1.270676 3.272258,3.193409 2.415646,3.828746c-0.890877,0.635338 -4.81416,1.270676 -6.099078,0c-1.284918,-1.287395 -4.368722,0.200633 -4.591441,2.541351c-0.239851,2.357438 0.873744,0.652057 2.158662,1.504748zm-60.082772,3.611394c-1.319183,-0.417985 0.428306,-2.976056 1.747489,-3.828746c1.284918,-0.85269 2.809688,-2.976056 4.12887,-5.099422c1.30205,-2.123366 3.049539,-2.340718 4.12887,-2.123366c1.079331,0.217352 3.477845,4.029379 4.12887,5.316775c0.651025,1.270676 2.82682,-0.434705 3.717696,-0.85269c0.856612,-0.417985 2.175795,-1.705381 2.398514,-2.758704s2.175795,-1.705381 4.351589,-1.705381s0.222719,1.705381 -1.30205,2.123366c-1.541902,0.417985 -0.651025,1.287395 1.935943,2.123366c2.621233,0.85269 5.019747,3.193409 7.863699,4.664717c2.82682,1.488028 3.255126,4.464084 1.507637,4.88207c-1.730356,0.417985 -6.95569,0.85269 -8.925898,0.635338c-1.953076,-0.217352 -4.351589,-2.123366 -7.178409,-2.558071c-2.82682,-0.417985 -6.321797,-0.217352 -7.418261,1.287395s-5.002615,0.835971 -6.767235,0.835971c-1.747489,0 -3.906151,2.123366 -4.334457,1.287395c0.017132,0.016719 1.319183,-3.795308 0.017132,-4.230012zm7.401128,-47.182195c1.079331,-2.976056 7.178409,0.635338 6.081946,2.123366c-1.079331,1.504748 -6.818632,-0.100317 -6.081946,-2.123366zm8.48046,152.581399c1.079331,1.705381 -2.398514,7.206069 -4.351589,6.804803c-1.935943,-0.451424 -1.30205,-5.316775 -0.651025,-6.386817c0.651025,-1.070043 4.437251,-1.337553 5.002615,-0.417985zm-79.031031,-98.811754c0.428306,-0.85269 -0.668157,-2.558071 -2.175795,-0.217352c-0.513967,0.819251 1.747489,1.070043 2.175795,0.217352zm130.616211,-77.561375c2.415646,1.270676 5.80783,1.788978 7.418261,0.217352c1.30205,-1.270676 0.222719,-3.410761 -0.856612,-3.611394c-1.096463,-0.217352 -1.781753,-1.922733 1.062199,-3.394042c2.82682,-1.488028 5.876359,-3.410761 9.148617,-3.828746c3.255126,-0.417985 10.656254,-0.635338 13.260355,0c2.604101,0.652057 6.544516,-2.775423 7.623848,-4.246732s-3.477845,-2.541351 -4.779895,-0.85269c-1.319183,1.705381 -7.606715,1.270676 -8.925898,0.85269c-1.30205,-0.417985 -11.752718,1.705381 -13.91138,1.705381c-2.192927,0 -3.066671,2.541351 -6.099078,3.828746c-3.066671,1.270676 -7.195542,3.193409 -8.720311,3.828746c-1.507637,0.635338 -3.032407,3.176689 -1.730356,3.611394c1.30205,0.417985 4.12887,0.618618 6.510252,1.889294zm-114.289184,77.561375c1.096463,-1.488028 -0.873744,-3.628113 -1.953076,-3.628113c-2.055869,0 -3.049539,3.193409 -1.764621,4.246732c1.319183,1.086762 2.621233,0.86941 3.717696,-0.618618zm9.799642,5.73476c1.096463,0.417985 1.953076,1.705381 2.82682,1.906014c0.890877,0.217352 3.717696,0 2.861084,-2.123366s-2.861084,-2.123366 -3.494977,-2.123366c-0.651025,0 -3.477845,-0.635338 -4.574309,0c-0.805215,0.468144 1.284918,1.922733 2.381382,2.340718zm-58.352415,-34.42528c1.730356,0.217352 3.717696,-1.053323 5.225334,-1.688661c1.507637,-0.635338 3.700564,-1.906014 3.700564,-3.828746c0,-1.906014 -0.428306,-3.611394 -1.319183,-4.464084c-0.873744,-0.85269 -2.398514,-1.070043 -3.700564,-0.85269c-1.970208,0.334388 -2.175795,2.340718 -3.477845,2.340718c-1.30205,0 -2.82682,0.417985 -2.398514,1.906014s1.319183,2.541351 0,3.176689c-1.30205,0.652057 0.205587,3.210128 1.970208,3.410761zm10.673387,-9.128802c2.175795,0.85269 6.750103,1.705381 5.002615,2.558071c-1.747489,0.85269 -4.797028,3.176689 -5.225334,4.464084s3.700564,2.558071 3.700564,2.558071s-1.319183,1.488028 -0.222719,1.906014c1.079331,0.417985 1.747489,-1.488028 3.477845,-1.488028c1.730356,0 5.208201,1.053323 6.95569,1.053323c1.764621,0 4.574309,-2.340718 4.351589,-3.828746c-0.222719,-1.488028 -2.398514,-3.828746 -4.351589,-4.681437c-1.935943,-0.85269 -4.12887,-4.681437 -5.430921,-5.534127c-1.30205,-0.85269 1.30205,-2.976056 -0.222719,-4.464084c-1.541902,-1.488028 -2.621233,-1.270676 -4.368722,-2.340718c-1.747489,-1.053323 -3.272258,0.217352 -4.351589,1.488028c-1.079331,1.270676 -2.398514,-0.217352 -3.717696,0.200633c-1.747489,0.58518 -1.079331,2.775423 -0.205587,3.828746c0.890877,1.086762 2.432778,3.42748 4.608573,4.280171zm219.258429,113.457964c-1.421976,0.618618 -2.621233,7.858126 0,8.710816c2.604101,0.86941 4.12887,-3.377322 3.272258,-4.464084c-0.890877,-1.036604 -1.319183,-5.099422 -3.272258,-4.246732zm-79.065295,54.605616c-2.724026,-0.752374 -3.032407,2.775423 -5.208201,5.116142c-2.192927,2.357438 -4.574309,4.246732 -5.430921,4.029379c-0.890877,-0.217352 -5.670772,1.488028 -4.146002,4.664717c1.52477,3.193409 1.30205,6.386817 -0.222719,7.891565c-1.52477,1.471309 1.30205,5.718041 0.890877,8.058759c-0.445438,2.323999 0.633893,3.828746 3.683432,3.828746s4.146002,-1.070043 5.448053,-3.828746c1.30205,-2.775423 1.507637,-5.534127 2.809688,-7.858126c1.319183,-2.357438 2.415646,-7.256227 3.066671,-8.526903c0.651025,-1.253956 1.953076,-5.283336 1.747489,-7.640774c-0.239851,-2.30728 -1.096463,-5.316775 -2.638365,-5.73476zm-166.576786,-194.981841c-1.182125,-1.003165 -3.923283,-1.705381 -5.242466,-1.839136c-1.30205,-0.133755 -2.604101,1.003165 -5.49945,1.003165c-2.878217,0 -4.779895,1.120201 -5.944888,0c-1.164992,-1.13692 -5.979152,-1.705381 -6.424591,-1.003165c-0.582496,0.953007 -1.730356,0.986446 -0.582496,2.976056c1.182125,1.972891 2.055869,3.109812 3.066671,2.976056s4.488647,-0.28423 4.934086,0.85269c0.428306,1.13692 1.610431,2.123366 4.060341,1.42115c2.484175,-0.702216 4.50578,-1.13692 5.071144,-1.989611c0.565364,-0.85269 4.50578,-0.986446 4.50578,-0.986446s3.203729,-2.424315 2.055869,-3.410761z" stroke-opacity="null" stroke-width="1.5" fill="#075454"/>
 </g>
</svg>