<svg width="500" height="500" xmlns="http://www.w3.org/2000/svg">
 <!-- Created with Method Draw - http://github.com/duopixel/Method-Draw/ -->
 <defs>
  <linearGradient y2="0" x2="1" y1="0" x1="0" id="svg_8">
   <stop offset="0" stop-color="#108282"/>
   <stop offset="1" stop-color="#ef7d7d"/>
  </linearGradient>
 </defs>
 <g>
  <title>background</title>
  <rect fill="none" id="canvas_background" height="502" width="502" y="-1" x="-1"/>
  <g display="none" overflow="visible" y="0" x="0" height="100%" width="100%" id="canvasGrid">
   <rect fill="url(#gridpattern)" stroke-width="0" y="0" x="0" height="100%" width="100%"/>
  </g>
 </g>
 <g>
  <title>Layer 1</title>
  <ellipse stroke="#000" ry="247.999999" rx="248.50001" id="svg_1" cy="249.000017" cx="250.50001" stroke-width="1.5" fill="#fff"/>
  <path stroke="#426373" id="svg_6" d="m58.442607,145.281225c-1.997276,0 -3.023874,-1.893761 -3.023874,-4.164721c0,-1.893322 0.513221,-3.731522 1.997276,-3.731522c1.026598,0 2.572009,1.838201 3.085231,3.731522c1.026598,2.756641 0,4.164721 -2.058633,4.164721zm341.413354,108.055669c4.569441,0 5.595883,0.485681 3.023874,3.731082c-1.484055,2.27096 -4.569285,4.164281 -6.05334,4.164281c-1.545256,0 -3.085231,-1.893322 -3.085231,-4.164281c0,-2.326667 2.058788,-3.731082 6.114697,-3.731082zm-319.018792,-132.176425c-4.569285,-0.91888 -5.082662,-5.571922 0,-6.976777c2.571854,-0.432613 4.056064,0.918734 4.056064,3.731522c0,2.326374 -1.48421,3.678307 -4.056064,3.245254zm-56.957162,146.993297c6.114697,-1.352079 6.114697,-2.323882 4.056064,-5.516361c-1.539975,-2.323882 -2.053196,-5.136377 -1.026598,-6.055404c0.513221,-1.407347 3.085231,0 4.569285,2.756934c2.058633,3.731522 3.598452,4.220135 7.654516,1.893322c2.516245,-1.404708 4.569285,-2.326081 4.569285,-0.918734c0,0.918734 1.545411,0 3.542687,-1.893322c3.085386,-2.756934 3.598607,-8.81483 0.513377,-12.060378c-2.510653,-2.756934 -15.253268,-1.837907 -18.795955,1.404708c-2.053196,2.326814 -3.598607,1.840839 -5.595883,-2.323442c-3.085231,-6.924148 -3.085231,-7.896243 4.055909,-8.328856c6.114697,0 6.114697,0 1.026598,-2.812495c-2.566417,-1.352079 -5.082507,-4.164281 -5.082507,-6.002482c0,-4.652748 7.085375,-7.409682 10.170606,-4.164135c1.026598,1.351786 3.024029,2.756934 5.082662,2.756934c4.056064,0 23.421005,-15.736486 23.421005,-18.982033c0,-1.4072 2.002868,-2.325934 4.056064,-1.4072c2.516089,0.488467 7.08553,-0.918734 11.716172,-3.245548c6.566561,-3.731229 6.566561,-4.164281 3.023874,-10.219685c-2.510653,-4.164281 -5.595883,-5.571922 -12.737178,-5.571922c-8.111973,0 -10.170606,0.919174 -12.681258,6.491095c-1.03219,3.731082 -4.117265,6.488163 -6.114697,6.488163c-3.542687,0 -4.569285,-4.161789 -1.026598,-6.488163c1.539819,-0.919174 2.566417,-4.164281 2.566417,-7.409829c0,-5.083602 -1.026598,-6.002482 -7.654516,-4.650256c-6.627918,0.918734 -6.627918,0.485681 -5.082662,-6.491388c1.026598,-4.164135 2.510653,-7.895364 3.542843,-8.328416c1.026598,-0.485681 2.053041,-4.650256 2.053041,-8.814537c0,-8.329296 3.029466,-9.734004 8.630942,-3.731522c2.566262,3.245401 4.111829,3.731522 5.082507,0.918734c1.026598,-1.837907 4.62505,-2.27096 10.226526,-1.352226c7.598751,1.838201 8.111973,1.352226 7.085375,-4.164281c-0.513221,-3.245108 -1.032035,-6.97663 -1.545256,-7.895364c0,-1.405148 -2.510653,-3.245548 -5.540119,-4.650696c-6.114697,-2.325934 -7.654516,-7.895364 -2.058633,-7.895364c1.545411,0 3.029311,-0.919174 3.029311,-2.759866c0,-1.405148 3.085386,-2.323882 7.141295,-1.893615c5.601475,0.488467 8.62535,-1.351493 16.279866,-11.085057c5.601475,-6.97707 9.657384,-10.708299 10.170761,-8.814977c0.513221,2.323882 3.085231,3.675668 5.60132,3.675668c4.056064,0 4.569441,-1.351786 3.085386,-7.40719c-0.518813,-4.164575 -3.085386,-9.24759 -4.630642,-11.574404c-4.569441,-5.138429 -4.569441,-11.140911 0,-9.303444c3.598452,1.840839 14.795656,-3.242616 14.795656,-6.488017c0,-1.407347 1.489647,-2.326374 3.542687,-2.326374c2.058788,0 3.029466,2.812349 3.029466,6.490949c0,4.650256 1.026598,6.488456 3.598607,5.13623c1.997276,-0.971949 3.542843,-3.731522 3.542843,-5.569283c0,-5.572215 16.27971,-15.305926 20.335619,-12.546499c1.545567,0.919467 3.085231,0 3.604355,-3.245108c1.483899,-6.490949 10.678235,-11.574404 14.734144,-8.328856c2.058788,1.351786 4.056219,0.919174 4.575033,-0.485681c1.026443,-1.840693 5.082507,-3.245548 9.651792,-3.678893c4.569285,-0.485681 10.683982,-2.326374 13.255992,-4.219696c9.651792,-6.002482 19.309332,-5.569429 23.365241,0.921959c2.572009,4.649963 3.598452,4.649963 3.598452,1.404415c0,-4.164575 2.003023,-4.650256 14.226825,-3.245108c19.365096,1.840693 22.394562,1.840693 29.535857,-0.486121c4.569285,-1.352079 6.114541,-0.919027 6.114541,2.812055c0,2.326814 1.48421,4.164721 3.542843,4.164721c1.539819,0 3.023874,-1.352226 3.023874,-2.759573c0,-3.731082 8.173485,-5.569283 15.314624,-3.731082c5.540119,1.840693 6.05334,2.325934 4.569285,14.819365c-0.513221,7.462751 0,12.546206 0.970833,12.546206c1.026443,0 2.058633,-3.245548 2.058633,-7.895803c0,-7.842881 5.595883,-11.08579 7.654516,-4.650402c0.513377,2.324028 1.997276,1.404855 3.023874,-2.270813c2.572165,-9.736496 8.173485,-4.653188 6.627918,6.002482c-1.539664,8.814537 -1.539664,8.814537 3.029621,5.56899c2.571854,-1.404855 4.56913,-5.083015 4.56913,-7.40719c0,-2.326521 1.545567,-5.085947 3.598763,-6.058043c4.055753,-1.837468 8.630786,5.13667 7.141139,10.222178c-0.513221,2.324322 -0.513221,4.164575 0.970678,4.164575c1.03219,0 2.058788,-1.351786 2.058788,-2.326374c0,-1.352079 2.516089,-1.838201 5.60132,-0.918734c6.622481,1.404855 7.593159,5.135937 1.997431,7.406897c-1.484055,0.974588 -3.029466,3.245548 -3.029466,5.139162c0,3.245548 1.032035,3.245548 6.627918,0c9.138571,-5.569283 13.19448,-5.139162 14.740046,0.918734c1.026443,3.245548 3.029311,4.652895 5.082507,3.245548c2.058633,-0.485975 6.627918,1.407347 10.170761,4.650256c3.085231,2.759426 7.654516,5.083455 9.713149,5.083455c3.029466,0 3.029466,2.326667 1.997276,8.817323c-1.026443,6.97707 -1.026443,7.895803 2.058788,5.083748c4.055909,-4.597774 5.595883,-4.165014 7.08553,2.323442c0.513221,3.245548 4.111673,5.571922 8.167738,6.976777c4.569285,0.921959 7.08553,3.245401 7.08553,6.004974c0,2.812349 1.539664,6.055404 3.085231,7.896097c4.056064,3.245108 3.023874,12.978819 -1.545567,16.22422c-1.539664,0.972096 -3.542532,0.486121 -4.055909,-0.918734c-1.026443,-1.40764 -4.569285,-1.40764 -11.197359,0c-10.683982,3.242616 -12.681258,4.164281 -10.170606,8.381485c1.545411,2.756934 19.314768,1.838201 29.022481,-1.407347c3.029466,-1.405001 4.056064,0 4.056064,6.491095c0,4.649963 -1.026598,8.328856 -2.566417,8.328856c-1.03219,0 -2.002868,1.404708 -2.002868,3.731082c0,5.571628 2.516245,5.083015 9.144163,-1.405148c3.537095,-3.731082 5.595728,-4.652748 8.111973,-2.325934c2.566417,2.325934 3.085231,2.325934 3.085231,-1.405148c0,-2.273745 -1.03219,-4.164281 -2.571854,-4.164281c-0.970833,0 -2.003023,-1.840693 -2.003023,-3.678893c0,-2.326081 1.489647,-4.164281 3.542687,-4.164281c1.545411,0 3.598607,0.918734 3.598607,2.27096c0,1.407933 2.002868,3.245401 4.574877,3.731522c3.537251,1.40764 4.569285,3.245548 4.055909,8.81483c-1.032035,10.654937 1.026753,13.900778 8.62535,12.06287c3.598607,-0.921959 5.595728,0 4.056064,1.837907c-0.457457,0.918734 0,3.245548 1.026598,4.21691c4.117265,2.75972 2.571854,9.248323 -1.997431,9.248323c-5.60132,0 -7.141295,2.325934 -4.111673,6.490655c2.053041,2.326374 3.598452,2.756934 5.595728,0.919027c4.630642,-4.650256 5.601475,-0.919027 6.114697,17.6323c0,9.300219 1.026598,16.710341 2.053196,16.710341c2.516089,0 1.545411,10.222178 -2.053196,14.386459c-2.002868,2.323882 -2.002868,4.594695 -0.513221,6.488017c3.598452,4.164721 0,16.225099 -4.575033,16.225099c-4.055753,0 -11.710425,8.814537 -11.710425,12.979112c0,5.08624 -6.566561,0 -8.111973,-5.569429c-1.539819,-5.083308 -1.539819,-5.083308 -2.572009,-1.407347c-0.970678,4.219842 4.574877,17.198954 9.200083,20.877114c3.029311,2.812788 -2.572009,7.462751 -6.628073,5.569429c-2.058788,-0.918734 -3.029466,-3.675668 -3.029466,-6.488163c0,-7.895364 -12.737178,-27.798916 -22.394562,-35.261374c-5.138271,-3.678893 -9.707712,-7.843175 -9.707712,-9.247883c0,-2.812495 -16.285302,-11.574404 -25.423873,-14.386752c-5.088254,-1.407347 -6.628073,-0.91888 -6.628073,2.812349c0,2.756934 -0.970678,3.675668 -3.029466,2.756934c-4.569285,-1.838201 -6.627918,2.326814 -2.571854,6.491095c5.60132,5.083308 4.630642,11.140911 -1.484055,8.814537c-4.111829,-1.404855 -4.625205,-0.919174 -3.085231,6.976923c0.513221,4.597334 1.545411,10.654937 1.545411,13.411871c0,2.812495 1.026443,4.650696 2.053041,4.650696c1.489802,0 2.002868,-0.919174 0.970833,-2.323882c-0.513221,-1.40764 0.518969,-2.759573 2.571854,-2.759573c1.545567,0 3.029466,1.840399 3.029466,3.678307c0,1.893615 -2.002713,3.731082 -5.60132,3.245841c-3.023874,0 -5.595883,-1.352226 -5.595883,-2.271253c0,-4.220135 -13.713448,-32.937786 -17.769357,-37.154989c-4.569441,-4.597774 -1.539975,-6.002482 -37.647985,15.79146c-5.595728,3.245548 -11.710425,10.222178 -14.795656,15.305926c-2.516245,5.083015 -6.572153,10.222178 -8.62535,11.140911c-2.058633,0.919174 -9.657384,8.328856 -16.285458,16.224659c-28.509259,34.772761 -23.878617,38.937335 -21.881186,109.949283c8.630786,53.809915 8.630786,53.809915 8.630786,53.809915c-20.341366,0 -20.341366,0 -20.341366,0c-16.793087,0 -16.793087,0 -16.793087,0c1.539819,-49.648419 1.539819,-49.648419 1.539819,-49.648419c1.026443,-4.161496 1.545411,-12.545766 2.058788,-17.196462c0.513221,-2.759426 -14.28259,-14.819804 -13.769213,-17.576446c0,-2.326374 15.309032,4.164721 15.309032,1.837907c2.516089,-33.854027 0,-60.786985 -6.628073,-75.120669c-1.539819,-8.814977 -14.282434,-37.152204 -16.27971,-37.152204c-0.513377,0 -4.111829,-2.759426 -7.654516,-6.004974c-6.114852,-6.055111 -8.62535,-6.488456 -42.736084,-8.328856c-36.621232,-1.890829 -36.621232,-1.890829 -36.621232,-1.890829c-8.681114,6.488456 -8.681114,6.488456 -8.681114,6.488456c-5.082507,4.219696 -10.170606,6.976777 -11.654816,6.976777c-3.085231,0 -15.827846,9.736056 -21.367964,15.305046c-0.513221,0 -1.026443,-0.485242 -1.026443,-0.918734c-0.513377,0 -0.513377,0 -0.513377,-0.485975c-0.513221,-1.351786 -1.032035,-2.759426 -2.058633,-4.164281c3.085231,-2.326374 5.60132,-3.733721 6.627918,-3.245108c1.539819,0.918734 3.029466,0 3.029466,-2.326814c0,-2.323882 -3.029466,-3.245401 -11.141439,-2.323882c-9.713304,1.405148 -12.229394,1.890829 -13.769213,7.407337c-2.516245,2.812349 -3.029466,6.976923 -1.539819,10.222471c-0.518969,4.164281 -0.518969,6.97663 0,6.97663c0.513221,0 1.026443,-0.918734 2.566417,-1.893322c0,0.486121 0.513221,0.974588 1.032035,1.407347c-5.088099,1.404855 -7.660108,5.569429 -7.141295,9.733711c-2.571854,1.893322 -5.088099,2.812349 -8.173174,4.217203c0,0 0,-0.485681 -0.457612,-0.485681c2.002868,-4.164281 3.029466,-8.814977 3.542687,-15.791607c1.03219,-7.843175 0.513221,-12.979112 -1.026443,-12.979112c-1.026598,0 -2.058633,1.893322 -2.058633,4.649816c0.513066,2.326814 -0.457612,4.650696 -2.510808,5.083748c-1.545411,0.485681 -2.571854,-0.433052 -2.571854,-2.756934c0,-5.571922 -1.997431,-5.571922 -6.572309,-0.488467c-2.053041,1.893322 -6.109105,4.164575 -9.651792,5.139162c-4.630642,1.351786 -6.114697,0.432613 -8.17333,-4.650696c-1.539819,-4.164281 -2.566417,-8.817323 -1.539819,-10.65523c0.513221,-2.326374 0.513221,-4.217203 -1.484055,-4.217203c-5.601475,0 -1.545411,-7.410122 5.082507,-8.817469zm43.762527,-106.648322c-3.085231,-0.485681 -5.601475,-1.837907 -6.627918,-3.731229c-0.513377,-2.759426 -1.026598,-2.759426 -1.026598,0c0,1.893322 -2.058633,3.245548 -4.056064,3.731229c-3.598452,0 -3.598452,0.485975 0.513377,2.326814c2.510497,0.918734 5.082507,2.323442 5.595728,2.323442c0.457457,0 3.029466,-1.404708 5.601475,-2.323442c4.569285,-2.326814 4.569285,-2.326814 0,-2.326814zm403.453023,74.687616c0.970833,0.919174 1.997431,-0.488467 1.997431,-2.812349c0,-1.840399 -1.026598,-3.6786 -1.997431,-3.6786c-1.545256,0 -2.571854,0.919027 -2.571854,2.27096c0,1.40764 1.026598,3.300962 2.571854,4.219989zm-3.598452,4.164575c-0.513221,-1.40764 -3.029466,-3.245401 -5.088099,-3.245401c-1.484055,0 -2.510653,1.837761 -1.484055,3.245401c0.457457,1.404855 2.516089,2.324028 4.569285,2.324028c2.002868,0 2.516089,-0.919174 2.002868,-2.324028zm-4.569285,20.874622c1.539819,0 3.598452,-0.485681 3.598452,-0.918734c0,-0.974588 -2.058633,-1.893322 -3.598452,-2.812495c-2.002868,-0.919027 -3.542843,-0.433052 -3.542843,0.919174c0,1.407347 1.539975,2.812055 3.542843,2.812055zm4.056064,-44.075911c2.053041,-0.919467 3.085075,-2.326667 2.566417,-3.678893c-1.539975,-3.29803 -10.165324,-3.29803 -10.165324,0c0,3.678893 3.024029,5.083748 7.598907,3.678893zm-27.940118,-34.775986c-2.572009,1.40764 -4.111829,4.164575 -3.598763,5.571922c2.572009,3.676108 5.601631,2.756934 8.167893,-3.245548c2.516245,-5.571922 1.489647,-6.490655 -4.56913,-2.326374zm-9.713304,71.442215c13.255836,12.492991 13.769213,12.979112 13.769213,8.81483c0,-2.323882 -1.026598,-4.217203 -2.572009,-4.217203c-1.483899,0 -4.055909,-2.326814 -5.595728,-5.083308c-1.48421,-2.759866 -4.569285,-5.572361 -7.08553,-5.572361c-4.62505,0 -4.62505,0.488613 1.484055,6.058043zm-10.678546,-21.849503c3.079794,0 4.569441,-0.918734 2.566573,-1.351933c-1.539819,-0.919027 -4.056064,-0.919027 -5.595883,0c-1.545567,0.433199 0,1.351933 3.029311,1.351933zm-14.739891,-63.057945c1.539819,1.405148 6.109105,3.243055 10.165014,4.164721c7.14145,1.404708 7.654671,1.404708 3.598607,-2.326374c-4.62505,-4.597774 -17.306308,-6.002482 -13.763621,-1.838347zm-31.025504,-76.958136c-1.539819,1.351786 -2.053041,4.164281 -1.539819,6.002042c1.026598,3.731522 4.056064,0.486121 4.056064,-5.083308c0,-2.812495 -0.513377,-3.245548 -2.516245,-0.918734zm15.253268,100.159865c4.056064,2.323589 5.601475,2.323589 7.660263,-0.921666c4.055909,-5.083602 1.483899,-7.40719 -6.114852,-4.164135c-6.114697,2.273452 -6.114697,2.273452 -1.545411,5.0858zm-10.165014,-23.201729c7.654516,-5.082869 7.654516,-5.082869 1.539819,-5.082869c-4.111829,0 -7.141295,1.837468 -8.681114,5.082869c-0.970833,3.243055 -2.002868,5.083748 -1.489647,5.083748c0,0 4.056064,-2.75972 8.630942,-5.083748zm-11.197359,75.173737c3.537095,5.083748 9.651948,5.083748 7.654516,-0.485975c-0.513221,-1.840399 -1.032035,-4.164281 -1.032035,-4.652895c0,-0.433052 -2.053196,-0.433052 -4.569285,0.488613c-4.111829,0.919027 -4.111829,2.323882 -2.053196,4.650256zm-15.772081,-19.037008c4.055909,5.083602 6.114697,5.569283 10.683982,1.838201c3.029466,-2.323882 3.029466,-2.323882 0,-2.756934c-1.539819,0 -5.595883,-0.488613 -9.138571,-1.40764c-5.088099,-1.837907 -5.088099,-1.837907 -1.545411,2.326374zm-0.513221,-50.5673c2.571854,0 5.60132,-7.409682 4.056064,-9.733564c-1.997431,-2.326374 -6.10926,1.404708 -6.10926,5.569283c0,2.326521 1.026598,4.164281 2.053196,4.164281zm-24.905215,31.530145c-3.085231,1.893322 -2.571854,2.326814 1.48421,2.326814c2.571854,0 5.595728,-0.921959 6.627918,-2.326814c1.539664,-3.67816 -3.542843,-3.67816 -8.112128,0zm0.513377,40.831097c0.457457,0.488613 1.997276,-0.485975 3.542687,-2.756934c1.539664,-1.893322 6.10926,-4.219696 9.651792,-5.138869c4.569285,-1.405148 6.628073,-3.675961 6.628073,-6.976923c0,-7.839949 -7.141295,-5.516507 -14.740202,4.653041c-3.085075,5.136377 -5.595728,9.300952 -5.082351,10.219685zm-5.60132,-21.36089c4.56913,-5.083015 4.56913,-6.004974 0.970523,-7.409829c-4.055909,-1.838201 -7.079783,2.326814 -7.079783,9.733711c-0.518813,5.571922 -0.518813,5.571922 6.10926,-2.323882zm-8.167893,-54.731435c0.513221,3.731082 1.539819,3.245401 4.56913,-3.6786c3.598763,-7.407337 3.598763,-8.381925 0.513377,-8.381925c-1.997276,0 -4.056064,1.405148 -4.569285,3.731669c-1.026598,1.837761 -1.026598,6.057896 -0.513221,8.328856zm-2.516245,-38.018748c0,1.890829 0.970678,6.488456 2.002868,9.733711c1.539819,6.490949 1.539819,6.490949 3.085231,0.919027c1.997276,-5.56899 0,-13.897846 -3.085231,-13.897846c-1.489647,0 -2.002868,1.404415 -2.002868,3.245108zm-35.644962,15.302994c-2.516089,3.245548 -2.516089,6.491095 -0.518813,16.224659c1.03219,6.976777 3.604199,13.9537 5.088099,15.305926c2.572009,2.326374 3.085231,0 3.598452,-14.38426c0,-17.576885 -2.571854,-23.148367 -8.167738,-17.146325zm4.569285,49.162445c0.513377,0.919174 1.539819,-0.919027 1.026598,-3.678453c0,-2.812495 -0.513221,-3.245548 -1.539819,-1.404855c-0.457612,1.837907 -0.457612,4.164281 0.513221,5.083308zm18.338498,-43.590523c-0.513221,0.919174 -0.513221,7.410122 1.026598,14.38426c1.545411,12.06287 2.002868,12.548552 2.516245,3.733721c0.513221,-14.386752 -0.513377,-21.363382 -3.542843,-18.117981zm-17.3119,130.824345c3.085231,-5.571922 8.167893,-14.872873 11.71058,-20.444355c4.055909,-6.002922 6.627918,-13.898285 7.654516,-21.794089c1.489647,-12.49343 1.489647,-12.49343 1.489647,-12.49343c-6.114697,6.924001 -6.114697,6.924001 -6.114697,6.924001c-3.029466,3.731522 -5.082662,7.895803 -5.082662,9.300952c0,3.678307 -9.657384,26.879596 -12.68685,31.044171c-1.539819,2.323442 -4.111829,7.462751 -4.569285,11.140911c-2.572009,10.653031 2.002868,8.81483 7.598751,-3.67816zm-36.108011,47.754805c1.545411,9.24759 1.545411,9.24759 6.628073,-10.655377c3.029466,-10.708445 7.598751,-27.851545 10.683982,-38.507068c4.055909,-13.465233 5.60132,-24.606144 5.60132,-40.344682c0,-20.442303 -0.518813,-20.875355 -4.574722,-18.548541c-9.194491,6.002335 -14.28259,22.712676 -16.335786,55.161555c-0.970678,16.713566 -2.002868,33.423907 -3.029311,37.102507c-0.513377,3.731229 0,10.708152 1.026443,15.791607zm1.03219,-118.711338c1.997276,4.597627 4.056064,8.328856 4.056064,8.328856c0.513221,0 3.023719,-2.812495 5.082507,-6.490655c2.571854,-3.242909 6.627918,-6.974138 8.167893,-8.326364c6.058777,-4.219696 7.598596,-17.198807 2.516089,-26.013638c-4.056064,-7.895803 -15.253268,-16.713273 -17.312056,-13.900778c-1.026443,0.919027 -2.510497,9.736496 -3.542687,19.956182c-2.053041,15.305486 -2.053041,19.958234 1.03219,26.446397zm-3.085231,-106.217468c1.026598,0.921666 2.053041,0.433052 2.053041,-0.971656c0,-1.840693 -1.026443,-3.678893 -2.053041,-4.597774c-1.545411,-0.974441 -2.516245,-0.485975 -2.516245,1.352226c0,1.404855 0.970833,3.245548 2.516245,4.217203zm-164.823582,124.713087c7.085375,0.488467 7.085375,0.488467 7.085375,0.488467c7.141295,0 14.28259,-6.004974 14.28259,-11.140911c0,-3.245548 -0.513221,-3.245548 -21.367964,10.652445zm3.029466,-12.979258c0,1.40808 1.026598,2.812495 2.572009,2.812495c2.510653,0 9.651792,-8.328856 8.111973,-9.733564c-1.545411,-1.893322 -10.683982,4.164135 -10.683982,6.921069zm5.60132,-31.962758c7.654671,9.250082 11.197359,10.169109 15.253268,4.164135c4.111829,-5.56899 0.513377,-9.300512 -11.716017,-10.652738c-10.165169,-1.40764 -10.165169,-1.40764 -3.537251,6.488603zm-5.60132,-26.011292c0,0.971656 3.598452,3.242616 7.654516,5.135937c18.79611,8.814977 22.394562,8.814977 21.881186,0.433492c0,-5.083748 -7.654516,-16.224953 -10.683982,-16.224953c-3.598452,0 -18.85172,8.81483 -18.85172,10.655523zm27.482661,65.870293c5.595883,0 6.109105,-1.405148 1.539819,-3.676108c-2.058633,-0.488467 -4.056064,0 -4.569285,1.352226c-1.03219,1.404415 0.513221,2.323882 3.029466,2.323882zm4.056064,-108.974842c-3.542843,-2.326667 -8.11772,-3.245401 -10.170761,-2.326667c-3.542687,1.840693 -3.029466,2.326667 2.053041,3.731082c2.516245,0.921959 7.660263,1.840839 10.170761,2.273892c3.029466,0 3.029466,-0.921666 -2.053041,-3.678307zm-0.457457,16.710341c3.023719,0 3.542687,-0.485975 1.484055,-1.890829c-1.484055,-0.432759 -3.542843,-0.432759 -4.569441,0.486121c-0.513221,0.918734 1.026598,1.838201 3.085386,1.404708zm3.023719,10.65567c-7.141139,0 -7.141139,0.432613 -3.023719,4.164135c5.082507,4.164281 6.566561,4.649963 8.62535,1.837907c3.542532,-3.676108 1.026443,-6.002042 -5.601631,-6.002042zm10.170916,-52.4055c-2.058788,-2.326374 -2.572009,1.838201 -1.539975,6.921509c0.513221,3.245548 2.566417,6.057603 3.598607,6.057603c1.997276,0 0.513221,-10.222178 -2.058633,-12.979112zm16.27971,61.219598c-1.026443,0.433492 1.545411,3.245548 4.574877,5.572215c3.085231,2.323882 5.595728,3.242762 5.595728,1.837907c0,-3.245108 -8.625194,-9.303004 -10.170606,-7.410122zm-12.737178,3.245548c-4.569285,3.245841 -1.997276,11.574257 4.625205,12.979405c3.542687,0.91888 9.144163,4.650402 12.68685,8.328563c3.085231,3.731522 5.595728,5.139162 5.595728,3.731522c0,-4.650256 -20.335774,-26.932811 -22.907784,-25.03949zm20.854743,38.507508c-3.029311,-7.465536 -6.572153,-11.141644 -13.200227,-13.468018c-5.082507,-1.837907 -10.170606,-2.812055 -11.710425,-2.323589c-1.545411,0.485681 4.569285,6.488163 13.255992,13.46494c16.27971,12.060378 16.27971,12.060378 11.65466,2.326667zm27.019613,-71.442508c-1.026598,0 -2.058788,1.838201 -2.058788,3.676108c0,2.326374 1.03219,3.731522 2.058788,3.731522c1.484055,0 2.516245,-1.405148 2.516245,-3.731522c0,-1.837907 -1.03219,-3.676108 -2.516245,-3.676108zm-4.62505,38.018748c0,3.245108 8.681114,0.919027 12.223802,-3.245548c5.082662,-6.97663 4.569285,-8.81483 -2.058633,-8.81483c-4.569285,0 -10.165169,6.491242 -10.165169,12.060378zm14.795811,-100.160305c-1.545411,6.002482 -2.572009,11.08579 -2.058633,11.574404c1.545256,1.838201 5.601475,-12.060085 5.601475,-17.632006c0,-2.323882 -1.545567,0.488613 -3.542843,6.057603zm26.450627,93.66921c-2.572009,0 -4.569441,0.921959 -4.569441,2.759426c0,1.405148 1.484055,2.326814 3.023874,2.326814c2.058633,0 4.056064,-0.921666 4.574877,-2.326814c1.026598,-1.837468 -0.518813,-2.759426 -3.029311,-2.759426zm-6.114852,87.180753c3.029466,8.384417 7.598751,16.224659 10.170761,18.117981c2.572009,1.405148 7.654516,7.896097 10.683982,14.386752c3.029466,6.488456 6.114697,11.571911 6.628073,11.571911c2.510497,0 -2.572009,-42.669004 -6.114697,-55.650608c-3.085386,-11.138419 -4.056219,-21.36089 -3.542843,-37.585549c0.457457,-12.060085 0,-22.715608 -1.026443,-23.634488c-0.513377,-0.919027 -4.056064,-0.919027 -7.141295,0c-5.601475,1.837907 -6.114697,3.245548 -6.114697,13.467725c0,7.840389 -1.026753,12.060378 -3.542843,13.897846c-7.141139,4.164721 -6.627918,27.799063 0,45.428431zm-14.739891,-62.138625c-1.026598,-6.976777 -2.053041,-7.895803 -7.654516,-7.895803c-6.628073,0 -6.628073,0.485975 -6.114697,10.219685c0,6.004974 1.032035,12.981604 1.545256,16.224513c0.513377,3.245548 2.516245,6.490655 4.569441,6.976777c4.055909,2.326667 8.625194,-13.897846 7.654516,-25.525171zm-7.654516,46.833139c-4.569441,-5.569429 -7.654516,-11.571911 -8.112128,-12.979112c0,-1.837907 -2.571854,-6.488163 -5.595883,-10.652738c-3.085231,-4.164281 -6.627918,-9.303151 -8.17333,-11.141351c-5.082507,-6.490655 -4.056064,-0.918734 1.545411,13.465233c3.542687,9.736056 9.651948,18.551033 16.793087,25.960716c13.200072,12.546059 14.740046,10.220125 3.542843,-4.652748zm-8.112128,22.768237c5.540119,0 5.082662,-0.485681 -2.571854,-7.895364c-5.082662,-4.650696 -8.62535,-9.734004 -8.62535,-12.060525c0,-1.837761 -6.628073,-8.381778 -14.282434,-14.38426c-7.598907,-6.057456 -14.740202,-12.059938 -15.766644,-13.900338c-1.03219,-2.323882 -1.545411,-2.323882 -1.545411,0.433052c0,2.812495 -2.510653,3.245108 -10.683982,1.837907c-5.595883,-0.919174 -10.165169,-0.919174 -10.165169,-0.43056c0,0.919027 2.053041,6.488456 4.111829,12.059938c3.542843,9.248029 5.082507,11.141644 16.279866,14.817459c7.08553,2.326374 18.282578,7.895657 25.423873,12.059938c6.628073,4.220135 14.740046,7.462751 17.825277,7.462751zm-79.412926,15.738538c2.058633,0 5.088099,-0.918734 7.141139,-2.325934c3.542843,-3.243055 0.518969,-3.243055 -6.109105,0c-3.029466,1.4072 -3.542687,1.840253 -1.032035,2.325934zm-5.595883,-11.574257c5.082662,-1.890536 21.367964,-3.731229 36.163775,-3.731229c27.934681,-0.433052 33.536001,-1.837468 22.338642,-4.650256c-3.542532,-0.918734 -11.65466,-3.245548 -18.282578,-5.569429c-11.71058,-4.164281 -35.650554,-2.759426 -38.161207,1.891269c-0.518813,0.921226 -3.085231,1.4072 -5.60132,0.921226c-5.082662,-1.407347 -10.170761,2.324175 -11.71058,9.734004c-2.058633,6.002042 1.539819,6.490655 15.253268,1.404415zm-40.677296,10.655523c1.026598,3.731522 6.114697,4.164281 10.170761,0.918734c2.510497,-1.837761 2.510497,-2.756494 0,-5.56899c-2.058633,-2.759866 -3.542687,-2.759866 -6.627918,-0.433052c-2.058633,1.352226 -3.542843,3.676108 -3.542843,5.083308zm-16.279866,32.449319c1.997431,0 3.024029,1.405148 1.997431,4.164575c-0.457612,1.893322 -1.997431,3.731229 -3.029466,3.731229c-1.539819,0 -2.510653,-1.837907 -2.510653,-3.731229c0,-2.27096 1.484055,-4.164575 3.542687,-4.164575z" stroke-width="1.5" fill="url(#svg_8)"/>
 </g>
</svg>