<?xml version="1.0" encoding="iso-8859-1"?>
<!-- Generator: Adobe Illustrator 22.0.0, SVG Export Plug-In . SVG Version: 6.00 Build 0)  -->
<svg xmlns="http://www.w3.org/2000/svg" xmlns:xlink="http://www.w3.org/1999/xlink" version="1.1" id="Layer_1" x="0px" y="0px" viewBox="0 0 64 64" style="enable-background:new 0 0 64 64;" xml:space="preserve" width="96px" height="96px">
<linearGradient id="SVGID_1__59137" gradientUnits="userSpaceOnUse" x1="29" y1="485" x2="29" y2="489" gradientTransform="matrix(1 0 0 1 0 -464)" spreadMethod="reflect">
	<stop offset="0" style="stop-color:#6DC7FF"/>
	<stop offset="1" style="stop-color:#E6ABFF"/>
</linearGradient>
<path style="fill:url(#SVGID_1__59137);" d="M29,21c-1.103,0-2,0.897-2,2s0.897,2,2,2s2-0.897,2-2S30.103,21,29,21z"/>
<linearGradient id="SVGID_2__59137" gradientUnits="userSpaceOnUse" x1="29" y1="492" x2="29" y2="496" gradientTransform="matrix(1 0 0 1 0 -464)" spreadMethod="reflect">
	<stop offset="0" style="stop-color:#6DC7FF"/>
	<stop offset="1" style="stop-color:#E6ABFF"/>
</linearGradient>
<path style="fill:url(#SVGID_2__59137);" d="M29,28c-1.103,0-2,0.897-2,2s0.897,2,2,2s2-0.897,2-2S30.103,28,29,28z"/>
<linearGradient id="SVGID_3__59137" gradientUnits="userSpaceOnUse" x1="29" y1="499" x2="29" y2="503" gradientTransform="matrix(1 0 0 1 0 -464)" spreadMethod="reflect">
	<stop offset="0" style="stop-color:#6DC7FF"/>
	<stop offset="1" style="stop-color:#E6ABFF"/>
</linearGradient>
<path style="fill:url(#SVGID_3__59137);" d="M29,35c-1.103,0-2,0.897-2,2s0.897,2,2,2s2-0.897,2-2S30.103,35,29,35z"/>
<linearGradient id="SVGID_4__59137" gradientUnits="userSpaceOnUse" x1="39" y1="486" x2="39" y2="488" gradientTransform="matrix(1 0 0 1 0 -464)" spreadMethod="reflect">
	<stop offset="0" style="stop-color:#6DC7FF"/>
	<stop offset="1" style="stop-color:#E6ABFF"/>
</linearGradient>
<rect x="33" y="22" style="fill:url(#SVGID_4__59137);" width="12" height="2"/>
<linearGradient id="SVGID_5__59137" gradientUnits="userSpaceOnUse" x1="39" y1="493" x2="39" y2="495" gradientTransform="matrix(1 0 0 1 0 -464)" spreadMethod="reflect">
	<stop offset="0" style="stop-color:#6DC7FF"/>
	<stop offset="1" style="stop-color:#E6ABFF"/>
</linearGradient>
<rect x="33" y="29" style="fill:url(#SVGID_5__59137);" width="12" height="2"/>
<linearGradient id="SVGID_6__59137" gradientUnits="userSpaceOnUse" x1="39" y1="500" x2="39" y2="502" gradientTransform="matrix(1 0 0 1 0 -464)" spreadMethod="reflect">
	<stop offset="0" style="stop-color:#6DC7FF"/>
	<stop offset="1" style="stop-color:#E6ABFF"/>
</linearGradient>
<rect x="33" y="36" style="fill:url(#SVGID_6__59137);" width="12" height="2"/>
<linearGradient id="SVGID_7__59137" gradientUnits="userSpaceOnUse" x1="32" y1="5.8333" x2="32" y2="58.3336" spreadMethod="reflect">
	<stop offset="0" style="stop-color:#1A6DFF"/>
	<stop offset="1" style="stop-color:#C822FF"/>
</linearGradient>
<path style="fill:url(#SVGID_7__59137);" d="M53.121,14.707l-7.828-7.828C44.727,6.312,43.973,6,43.171,6H23c-1.654,0-3,1.346-3,3v5h-7  c-1.654,0-3,1.346-3,3v38c0,1.654,1.346,3,3,3h28c1.654,0,3-1.346,3-3v-5h7c1.654,0,3-1.346,3-3V16.829  C54,16.027,53.688,15.273,53.121,14.707z M45,9.414L50.586,15H46c-0.551,0-1-0.449-1-1V9.414z M51,48H23c-0.551,0-1-0.449-1-1V24h-2  v23c0,1.654,1.346,3,3,3h19v5c0,0.551-0.449,1-1,1H13c-0.551,0-1-0.449-1-1V17c0-0.551,0.449-1,1-1h9V9c0-0.551,0.449-1,1-1h20v6  c0,1.654,1.346,3,3,3h6v30C52,47.551,51.551,48,51,48z"/>
</svg>
